<?xml version="1.0" standalone="no"?>
<!DOCTYPE svg PUBLIC "-//W3C//DTD SVG 20010904//EN"
 "http://www.w3.org/TR/2001/REC-SVG-20010904/DTD/svg10.dtd">
<svg version="1.0" xmlns="http://www.w3.org/2000/svg"
 width="512.000000pt" height="512.000000pt" viewBox="0 0 512.000000 512.000000"
 preserveAspectRatio="xMidYMid meet">
<metadata>
Created by potrace 1.14, written by Peter Selinger 2001-2017
</metadata>
<g transform="translate(0.000000,512.000000) scale(0.100000,-0.100000)"
fill="#000000" stroke="none">
<path d="M2303 4770 c-4 -4 -48 -13 -98 -19 -202 -28 -468 -112 -675 -216
-101 -50 -310 -174 -310 -183 0 -3 8 -15 18 -26 14 -17 14 -18 1 -8 -14 10
-18 10 -23 -4 -3 -9 -3 -21 1 -27 26 -45 236 -327 243 -327 6 0 16 -15 24 -32
25 -60 231 -333 253 -336 12 -2 47 14 79 34 212 136 477 209 749 208 277 -1
491 -63 771 -224 22 -13 47 -21 55 -18 18 7 216 277 242 331 11 20 23 37 27
37 7 0 219 285 243 327 4 6 4 18 1 27 -5 14 -9 14 -23 4 -13 -10 -13 -9 2 8 9
11 17 23 17 26 0 9 -210 133 -310 183 -205 103 -474 189 -675 216 -50 6 -94
15 -100 19 -13 10 -501 10 -512 0z m120 -417 c-7 -2 -19 -2 -25 0 -7 3 -2 5
12 5 14 0 19 -2 13 -5z m300 0 c-7 -2 -21 -2 -30 0 -10 3 -4 5 12 5 17 0 24
-2 18 -5z m-396 -9 c-3 -3 -12 -4 -19 -1 -8 3 -5 6 6 6 11 1 17 -2 13 -5z
m490 0 c-3 -3 -12 -4 -19 -1 -8 3 -5 6 6 6 11 1 17 -2 13 -5z m-1546 -61 c13
-16 12 -17 -3 -4 -10 7 -18 15 -18 17 0 8 8 3 21 -13z m2599 13 c0 -2 -8 -10
-17 -17 -16 -13 -17 -12 -4 4 13 16 21 21 21 13z m-2540 -92 c18 -26 29 -45
24 -42 -5 4 -25 28 -44 54 -18 26 -29 45 -24 42 5 -4 25 -28 44 -54z m2478 10
c-18 -25 -37 -48 -43 -52 -5 -3 3 12 19 34 45 60 48 64 53 64 2 0 -11 -21 -29
-46z m-1948 6 c-8 -5 -19 -10 -25 -10 -5 0 -3 5 5 10 8 5 20 10 25 10 6 0 3
-5 -5 -10z m1420 0 c8 -5 11 -10 5 -10 -5 0 -17 5 -25 10 -8 5 -10 10 -5 10 6
0 17 -5 25 -10z m-1490 -30 c-8 -5 -19 -10 -25 -10 -5 0 -3 5 5 10 8 5 20 10
25 10 6 0 3 -5 -5 -10z m1560 0 c8 -5 11 -10 5 -10 -5 0 -17 5 -25 10 -8 5
-10 10 -5 10 6 0 17 -5 25 -10z m-1520 -20 c-8 -5 -19 -10 -25 -10 -5 0 -3 5
5 10 8 5 20 10 25 10 6 0 3 -5 -5 -10z m1480 0 c8 -5 11 -10 5 -10 -5 0 -17 5
-25 10 -8 5 -10 10 -5 10 6 0 17 -5 25 -10z m-1929 -37 c13 -16 12 -17 -3 -4
-10 7 -18 15 -18 17 0 8 8 3 21 -13z m2379 13 c0 -2 -8 -10 -17 -17 -16 -13
-17 -12 -4 4 13 16 21 21 21 13z m-2349 -53 c13 -16 12 -17 -3 -4 -17 13 -22
21 -14 21 2 0 10 -8 17 -17z m259 2 c0 -2 -10 -9 -22 -15 -22 -11 -22 -10 -4
4 21 17 26 19 26 11z m1820 -21 c0 -2 -9 0 -20 6 -11 6 -20 13 -20 16 0 2 9 0
20 -6 11 -6 20 -13 20 -16z m-1735 -424 c-3 -5 -12 -10 -18 -10 -7 0 -6 4 3
10 19 12 23 12 15 0z m1630 -8 c-3 -3 -11 0 -18 7 -9 10 -8 11 6 5 10 -3 15
-9 12 -12z"/>
<path d="M1022 4297 c-12 -14 -20 -536 -8 -555 12 -20 64 -14 76 7 5 11 10 84
10 165 0 91 4 146 10 146 14 0 24 -12 274 -336 l223 -289 -58 -63 c-75 -80
-124 -147 -182 -247 -52 -88 -117 -242 -137 -321 -11 -44 -22 -58 -67 -95
-101 -80 -267 -262 -342 -373 -114 -171 -183 -318 -227 -486 -35 -129 -49
-390 -29 -498 42 -216 204 -398 418 -468 74 -25 97 -27 232 -28 83 -1 179 3
215 7 l65 9 70 -107 c231 -355 575 -481 893 -330 41 19 79 35 86 35 6 0 52
-20 101 -44 90 -45 206 -76 284 -76 68 0 192 29 259 60 139 65 264 178 360
326 82 128 75 123 163 108 41 -7 118 -13 172 -14 349 -1 607 192 671 500 20
97 7 364 -23 485 -49 198 -155 409 -300 595 -71 92 -226 250 -284 290 -29 20
-38 35 -53 89 -26 98 -70 206 -121 301 -58 108 -92 158 -168 245 l-61 70 203
275 c112 151 210 276 218 278 13 3 15 -17 17 -115 1 -65 2 -127 3 -138 1 -11
3 -28 4 -37 2 -30 38 -42 68 -23 20 13 24 23 21 46 -3 16 -1 29 4 29 11 0 10
385 -2 435 -10 43 -33 67 -56 58 -8 -3 -134 -161 -280 -352 -147 -190 -272
-352 -279 -360 -11 -11 -27 -4 -97 47 -151 110 -307 182 -497 230 -98 25 -122
27 -311 27 -189 0 -213 -2 -311 -27 -183 -46 -341 -118 -478 -216 -70 -51 -74
-52 -87 -34 -7 11 -79 102 -159 203 -81 101 -216 273 -302 382 -152 193 -176
215 -201 184z m1136 -757 c80 -15 142 -49 208 -115 83 -82 108 -146 109 -276
0 -90 -2 -99 -38 -171 -66 -133 -176 -208 -319 -216 -104 -6 -173 10 -246 58
-117 75 -176 186 -176 335 0 80 3 97 31 157 55 116 149 195 268 224 63 16 99
16 163 4z m954 -1 c122 -26 225 -108 279 -223 91 -194 8 -426 -186 -522 -55
-27 -69 -29 -170 -29 -100 0 -115 3 -166 28 -133 65 -218 188 -227 330 -17
263 217 469 470 416z m-2545 -2111 c-3 -7 -5 -2 -5 12 0 14 2 19 5 13 2 -7 2
-19 0 -25z m3990 -20 c-3 -7 -5 -2 -5 12 0 14 2 19 5 13 2 -7 2 -19 0 -25z
m-3980 -20 c-3 -8 -6 -5 -6 6 -1 11 2 17 5 13 3 -3 4 -12 1 -19z m3970 -20
c-3 -8 -6 -5 -6 6 -1 11 2 17 5 13 3 -3 4 -12 1 -19z m-3960 -20 c-3 -8 -6 -5
-6 6 -1 11 2 17 5 13 3 -3 4 -12 1 -19z m104 -195 c13 -16 12 -17 -3 -4 -10 7
-18 15 -18 17 0 8 8 3 21 -13z m3749 -17 c0 -2 -8 -10 -17 -17 -16 -13 -17
-12 -4 4 13 16 21 21 21 13z m-3700 -41 c13 -14 21 -25 18 -25 -2 0 -15 11
-28 25 -13 14 -21 25 -18 25 2 0 15 -11 28 -25z m61 -52 c13 -16 12 -17 -3 -4
-10 7 -18 15 -18 17 0 8 8 3 21 -13z m3549 4 c0 -2 -10 -12 -22 -23 l-23 -19
19 23 c18 21 26 27 26 19z m-80 -62 c0 -6 -76 -45 -87 -45 -4 1 12 12 37 25
50 27 50 27 50 20z m-3320 -25 c8 -5 11 -10 5 -10 -5 0 -17 5 -25 10 -8 5 -10
10 -5 10 6 0 17 -5 25 -10z m117 -36 c-3 -3 -12 -4 -19 -1 -8 3 -5 6 6 6 11 1
17 -2 13 -5z m370 0 c-3 -3 -12 -4 -19 -1 -8 3 -5 6 6 6 11 1 17 -2 13 -5z
m-314 -11 c-7 -2 -19 -2 -25 0 -7 3 -2 5 12 5 14 0 19 -2 13 -5z m250 0 c-7
-2 -19 -2 -25 0 -7 3 -2 5 12 5 14 0 19 -2 13 -5z m2294 1 c-3 -3 -12 -4 -19
-1 -8 3 -5 6 6 6 11 1 17 -2 13 -5z m-2399 -11 c-15 -2 -42 -2 -60 0 -18 2 -6
4 27 4 33 0 48 -2 33 -4z m2449 1 c-3 -3 -12 -4 -19 -1 -8 3 -5 6 6 6 11 1 17
-2 13 -5z m66 -11 c-7 -2 -19 -2 -25 0 -7 3 -2 5 12 5 14 0 19 -2 13 -5z m230
0 c-7 -2 -19 -2 -25 0 -7 3 -2 5 12 5 14 0 19 -2 13 -5z m-1870 -460 c-7 -2
-19 -2 -25 0 -7 3 -2 5 12 5 14 0 19 -2 13 -5z m110 0 c-7 -2 -19 -2 -25 0 -7
3 -2 5 12 5 14 0 19 -2 13 -5z m714 -20 c-20 -2 -52 -2 -70 0 -17 2 0 4 38 4
39 0 53 -2 32 -4z"/>
<path d="M2196 3415 c-83 -29 -128 -113 -106 -194 13 -49 76 -107 125 -117
142 -26 249 148 158 257 -47 55 -115 77 -177 54z m139 -60 c48 -47 17 -125
-51 -125 -38 0 -74 38 -74 77 0 32 42 73 75 73 14 0 37 -11 50 -25z"/>
<path d="M3148 3418 c-47 -13 -105 -75 -114 -123 -20 -109 83 -211 192 -190
49 9 108 67 123 120 32 117 -80 226 -201 193z m137 -63 c14 -13 25 -36 25 -50
0 -36 -42 -75 -80 -75 -41 0 -70 31 -70 75 0 69 76 100 125 50z"/>
<path d="M543 1570 c0 -41 2 -58 4 -37 2 20 2 54 0 75 -2 20 -4 3 -4 -38z"/>
<path d="M4573 1550 c0 -41 2 -58 4 -37 2 20 2 54 0 75 -2 20 -4 3 -4 -38z"/>
</g>
</svg>
